<svg width="78" height="88" viewBox="0 0 78 88" fill="none" xmlns="http://www.w3.org/2000/svg">
<g filter="url(#filter0_d_37_2831)">
<g clip-path="url(#clip0_37_2831)">
<path style="mix-blend-mode:screen" fill-rule="evenodd" clip-rule="evenodd" d="M76.0186 71.1747C78.2904 48.351 78.2928 24.4975 76.0211 1.67377C75.2286 -6.40787 59.5908 -14.5794 38.9869 -14.5794C18.383 -14.5794 3.85464 -7.31043 3.00935 0.792427C0.737639 23.6162 -0.559237 48.1984 1.71247 71.0221C2.50493 79.125 17.0837 86.3552 37.6876 86.3552C58.2915 86.3552 75.1734 79.2776 76.0186 71.1747Z" fill="url(#paint0_linear_37_2831)"/>
<path style="mix-blend-mode:screen" opacity="0.5" fill-rule="evenodd" clip-rule="evenodd" d="M55.1993 -20.025C30.9857 -17.6688 7.73249 -11.7348 -14.4741 -2.24512C-18.6838 -0.459645 -20.5452 8.1944 -19.8785 20.8262C-19.6348 25.387 -18.4429 30.7726 -16.5148 36.1481C-14.5866 41.5236 -12.4967 45.2576 -10.5825 46.725C4.53543 58.425 16.342 72.841 34.38 68.2379C52.4179 63.6348 70.125 41.1538 76.9709 22.9598C77.835 20.6946 77.6146 16.2168 76.3958 10.5713C75.177 4.92589 73.2705 -0.455124 71.0692 -4.33851C65.3164 -14.6056 59.5434 -20.5113 55.1759 -20.108L55.1993 -20.025Z" fill="url(#paint1_linear_37_2831)"/>
</g>
<rect x="72" y="2" width="76" height="66" rx="18" transform="rotate(90 72 2)" stroke="url(#paint2_linear_37_2831)" stroke-width="4" shape-rendering="crispEdges"/>
</g>
<defs>
<filter id="filter0_d_37_2831" x="0" y="0" width="78" height="88" filterUnits="userSpaceOnUse" color-interpolation-filters="sRGB">
<feFlood flood-opacity="0" result="BackgroundImageFix"/>
<feColorMatrix in="SourceAlpha" type="matrix" values="0 0 0 0 0 0 0 0 0 0 0 0 0 0 0 0 0 0 127 0" result="hardAlpha"/>
<feOffset dy="4"/>
<feGaussianBlur stdDeviation="2"/>
<feComposite in2="hardAlpha" operator="out"/>
<feColorMatrix type="matrix" values="0 0 0 0 0 0 0 0 0 0 0 0 0 0 0 0 0 0 0.25 0"/>
<feBlend mode="normal" in2="BackgroundImageFix" result="effect1_dropShadow_37_2831"/>
<feBlend mode="normal" in="SourceGraphic" in2="effect1_dropShadow_37_2831" result="shape"/>
</filter>
<linearGradient id="paint0_linear_37_2831" x1="1.31878" y1="-469.614" x2="74.8385" y2="-456.782" gradientUnits="userSpaceOnUse">
<stop offset="0.02" stop-color="#5782F5"/>
<stop offset="1" stop-color="#0F4B94"/>
</linearGradient>
<linearGradient id="paint1_linear_37_2831" x1="-474.437" y1="188.833" x2="-463.038" y2="121.772" gradientUnits="userSpaceOnUse">
<stop offset="0.02" stop-color="#F8BCBC"/>
<stop offset="0.98" stop-color="#4C4EE7"/>
</linearGradient>
<linearGradient id="paint2_linear_37_2831" x1="154" y1="35" x2="74" y2="35" gradientUnits="userSpaceOnUse">
<stop stop-color="#3BB0FF" stop-opacity="0.4"/>
<stop offset="1" stop-color="#A8DCFF" stop-opacity="0"/>
</linearGradient>
<clipPath id="clip0_37_2831">
<rect x="74" width="80" height="70" rx="20" transform="rotate(90 74 0)" fill="white"/>
</clipPath>
</defs>
</svg>
